# xmcd
#
# Track frame offsets: 
#        150
#        13995
#        32460
#        49507
#        66389
#        85746
#        103769
#        124067
#        140963
#        161303
#        185302
#        202569
#        222416
#        241240
#        259886
#        276723
#        296287
#        316542
#        339668
#
# Disc length: 4783 seconds
#
# Revision: 0
# Processed by: cddbd v1.5.2PL0 Copyright (c) Steve Scherf et al.
# Submitted via: ExactAudioCopy v1.1
#
DISCID=1512ad13
DTITLE=Various Artist - Akella Presents - vol.94 - Blues-Rock   CD1
DYEAR=2016
DGENRE=Blues
TTITLE0=The Screamin' Cheetah Wheelies - Shakin' The Blues
TTITLE1=Rick Brannon  and Electric Detective - Favorite Dish
TTITLE2=Monti Amundson - Take A Walk
TTITLE3=Van Wilks - Driveby Lover
TTITLE4=Jim Dandy - Dark Purple Blues
TTITLE5=Buddah Heads - Talkin' Trash
TTITLE6=Timo Gross - Radiate
TTITLE7=Jeremiah Johnson Band - Mind Reader
TTITLE8=Sunnyland - You Can't Catch Me
TTITLE9=Aidan - I Got the Blues
TTITLE10=Ash Grunwald - Shake That Thing
TTITLE11=Pebbleman - Love Is A Powerful Thing
TTITLE12=Laurence Jones - Something Is Changed
TTITLE13=The Quireboys - Midnight Collective
TTITLE14=Oli Brown - Start It Again
TTITLE15=Jessy Martens and Band - One Minute Love
TTITLE16=American Blues Box - Mississippi Mud
TTITLE17=Guitar Shorty - I'm Gonna Leave You
TTITLE18=Ronnie Baker Brooks - Hit Me On The Hip
EXTD=
EXTT0=
EXTT1=
EXTT2=
EXTT3=
EXTT4=
EXTT5=
EXTT6=
EXTT7=
EXTT8=
EXTT9=
EXTT10=
EXTT11=
EXTT12=
EXTT13=
EXTT14=
EXTT15=
EXTT16=
EXTT17=
EXTT18=
PLAYORDER=
